<svg xmlns="http://www.w3.org/2000/svg" xmlns:xlink="http://www.w3.org/1999/xlink" viewBox="0 0 687.16 70.43">
  <defs>
    <clipPath id="clip-path">
      <path d="M496.48,22.49A16,16,0,0,0,490,28.55a12.76,12.76,0,0,0-5.45-5.82,17.35,17.35,0,0,0-8.48-2,17.68,17.68,0,0,0-4,.47,20,20,0,0,0-3.9,1.34,13.81,13.81,0,0,0-3.4,2.18,11.56,11.56,0,0,0-2.48,3V22.08H450.21v46.8H462.9V41.48a9.74,9.74,0,0,1,2.29-6.56,8.1,8.1,0,0,1,6.49-2.67q4.29,0,6.29,2.52a9.86,9.86,0,0,1,2,6.33V68.87h12.58V41.48a9.8,9.8,0,0,1,2.3-6.51,7.89,7.89,0,0,1,6.39-2.71q4.39,0,6.35,2.52a10,10,0,0,1,1.95,6.33V68.87h12.31V38.53a20.41,20.41,0,0,0-1.43-8,15.91,15.91,0,0,0-3.81-5.57,14.6,14.6,0,0,0-5.45-3.18,20.12,20.12,0,0,0-6.28-1,19.47,19.47,0,0,0-8.4,1.76m49.61,36.64a5.38,5.38,0,0,1-1.53-3.76,5.05,5.05,0,0,1,1.66-4.14,8.49,8.49,0,0,1,4.15-1.76L561,47.85v2.09a13.47,13.47,0,0,1-.85,5.19,9.15,9.15,0,0,1-2.3,3.33,8.05,8.05,0,0,1-3.29,1.8,14.21,14.21,0,0,1-3.87.53,5.88,5.88,0,0,1-4.57-1.66M544.56,22a20,20,0,0,0-6.11,3.57,16.7,16.7,0,0,0-3.91,5,15.1,15.1,0,0,0-1.71,5.53l11.25,2.37a8.31,8.31,0,0,1,9-7.62c2.67,0,4.66.61,6,1.81a5.62,5.62,0,0,1,2,4.28,3.24,3.24,0,0,1-.77,2.15,4.35,4.35,0,0,1-2.76,1.18L545.9,41.95a24.92,24.92,0,0,0-5.49,1.53A14.34,14.34,0,0,0,536,46.34a13,13,0,0,0-4.11,9.79,12.91,12.91,0,0,0,1.1,5.29,13.05,13.05,0,0,0,3.2,4.47,16.08,16.08,0,0,0,5.1,3.15A18.26,18.26,0,0,0,548,70.21a15.73,15.73,0,0,0,13.83-6.94c0,.89.06,1.88.15,3s.21,2,.34,2.61h11.64c-.12-.81-.26-1.93-.38-3.36s-.19-2.78-.19-4v-23a20.79,20.79,0,0,0-1.09-6.75A14.49,14.49,0,0,0,568.74,26a17.76,17.76,0,0,0-6.33-3.92A27.08,27.08,0,0,0,553,20.65,23.44,23.44,0,0,0,544.56,22M654.49,36.91A10,10,0,0,1,656.55,34a10.61,10.61,0,0,1,7.63-3,12.22,12.22,0,0,1,4.62.81,10,10,0,0,1,3.25,2.1,8.36,8.36,0,0,1,1.9,2.94,11.57,11.57,0,0,1,.72,3.39h-21a9.79,9.79,0,0,1,.81-3.24m.81-14.51a23,23,0,0,0-7.39,5,23.57,23.57,0,0,0-5.1,7.75,26.16,26.16,0,0,0-1.91,10.17,27,27,0,0,0,2,10.57,23.55,23.55,0,0,0,5.3,7.9,22.36,22.36,0,0,0,7.73,4.91,25.72,25.72,0,0,0,9.25,1.65A25,25,0,0,0,673,69.12a22,22,0,0,0,6.26-3.18,19.79,19.79,0,0,0,4.52-4.72,19.36,19.36,0,0,0,2.72-5.75l-10.59-3.15a11.42,11.42,0,0,1-3.68,5.14,11,11,0,0,1-7,2,12.21,12.21,0,0,1-4.49-.81,11.35,11.35,0,0,1-3.66-2.23A11.79,11.79,0,0,1,654.49,53a10,10,0,0,1-1.09-4.23H687q0-.2.1-1.38c.07-.8.09-1.64.09-2.52q0-11.33-6.1-17.79T664,20.65a22.59,22.59,0,0,0-8.69,1.74M598.5,55.18c-2.19-2.34-3.29-5.61-3.29-9.8s1.11-7.42,3.38-9.71a11.23,11.23,0,0,1,8.26-3.42,11,11,0,0,1,8.2,3.39c2.23,2.24,3.34,5.47,3.34,9.64s-1.11,7.56-3.34,9.9a11.48,11.48,0,0,1-16.55,0M618.2,0V26.74a7.37,7.37,0,0,0-1.49-2,11.26,11.26,0,0,0-2.62-1.86,18.17,18.17,0,0,0-3.86-1.43,22.14,22.14,0,0,0-5.3-.56A21.44,21.44,0,0,0,588.72,28a23.94,23.94,0,0,0-4.62,7.75,27.2,27.2,0,0,0-1.66,9.61,27.44,27.44,0,0,0,1.71,9.85A24.22,24.22,0,0,0,588.87,63a21.23,21.23,0,0,0,7.2,5.13A22.63,22.63,0,0,0,605.33,70a16.37,16.37,0,0,0,8.15-1.9,13,13,0,0,0,5-4.66c0,1.07,0,2.13.15,3.14a14.41,14.41,0,0,0,.34,2.27h12.11c-.12-.94-.21-2.19-.28-3.75s-.1-3.13-.1-4.71V0Z" style="fill: #333"/>
    </clipPath>
    <clipPath id="clip-path-2">
      <polyline points="27.38 20.36 27.38 37.01 18.66 37.01 18.66 20.36 0 20.36 0 69.71 18.66 69.71 18.66 51.26 27.38 51.26 27.38 69.71 46.01 69.71 46.01 20.36 27.38 20.36" style="fill: #333"/>
    </clipPath>
    <clipPath id="clip-path-3">
      <rect x="0.06" width="687.1" height="70.37" style="fill: #333"/>
    </clipPath>
    <clipPath id="clip-path-4">
      <polyline points="80.41 20.36 80.41 69.71 118.07 69.71 118.07 56.89 99.11 56.89 99.11 51.05 116.14 51.05 116.14 38.38 99.11 38.38 99.11 33.01 117.45 33.01 117.45 20.36 80.41 20.36" style="fill: #333"/>
    </clipPath>
    <clipPath id="clip-path-5">
      <path d="M173,30.35l4.24,19.49h-8.8L173,30.35m-11.7-10L145,69.8h18.78l1.82-7.92H180l1.72,7.92H202.1L186.5,20.36Z" style="fill: #333"/>
    </clipPath>
    <clipPath id="clip-path-6">
      <path d="M247.83,40.72V31.39a20.48,20.48,0,0,1,2.12-.08c4.2,0,6,1.31,6,4.39s-2.34,5.05-6.81,5.05c-.41,0-.91,0-1.35,0M229.18,20.36V69.71h18.66V51.83c.59-.06,1.23-.06,1.7-.06,4.48,0,5.1,2.1,5.84,7.43l.48,3.67a55.49,55.49,0,0,0,1.44,6.84h18.9c-.82-3.65-1.43-6.58-1.72-8.78l-.62-5.28c-.88-7.12-2.48-10.14-9.12-11.25,6.46-1.72,9.74-5.55,9.74-11.51,0-9.87-6.38-12.53-20-12.53Z" style="fill: #333"/>
    </clipPath>
    <clipPath id="clip-path-7">
      <path d="M304.07,35.1c0,6.92,3.71,10.81,11.69,13.34,5.83,1.86,10.3,2.56,12.84,3.8a3.55,3.55,0,0,1,1.94,3.41c0,2.12-1.71,3.55-4.61,3.55-3.22,0-4.72-1.55-4.72-4.93v-.39H303.38a14.08,14.08,0,0,0-.08,1.78c0,8.68,6.54,14,18.9,14.77h6.27C341,69.55,348.21,63,348.21,53.3c0-9-5.49-12.13-17-15.19-6.26-1.71-9.69-1.56-9.69-5,0-1.87,1.58-3.3,4.12-3.3,2.76,0,4.12,1.43,4.33,4.38h16.43v-1c0-8.71-7-13.57-20.06-13.57-14.44,0-22.28,5.84-22.28,15.5" style="fill: #333"/>
    </clipPath>
  </defs>
  <title>logo</title>
  <g id="Layer_2" data-name="Layer 2">
    <g id="Layer_1-2" data-name="Layer 1">
      <path d="M496.48,22.49A16,16,0,0,0,490,28.55a12.76,12.76,0,0,0-5.45-5.82,17.35,17.35,0,0,0-8.48-2,17.68,17.68,0,0,0-4,.47,20,20,0,0,0-3.9,1.34,13.81,13.81,0,0,0-3.4,2.18,11.56,11.56,0,0,0-2.48,3V22.08H450.21v46.8H462.9V41.48a9.74,9.74,0,0,1,2.29-6.56,8.1,8.1,0,0,1,6.49-2.67q4.29,0,6.29,2.52a9.86,9.86,0,0,1,2,6.33V68.87h12.58V41.48a9.8,9.8,0,0,1,2.3-6.51,7.89,7.89,0,0,1,6.39-2.71q4.39,0,6.35,2.52a10,10,0,0,1,1.95,6.33V68.87h12.31V38.53a20.41,20.41,0,0,0-1.43-8,15.91,15.91,0,0,0-3.81-5.57,14.6,14.6,0,0,0-5.45-3.18,20.12,20.12,0,0,0-6.28-1,19.47,19.47,0,0,0-8.4,1.76m49.61,36.64a5.38,5.38,0,0,1-1.53-3.76,5.05,5.05,0,0,1,1.66-4.14,8.49,8.49,0,0,1,4.15-1.76L561,47.85v2.09a13.47,13.47,0,0,1-.85,5.19,9.15,9.15,0,0,1-2.3,3.33,8.05,8.05,0,0,1-3.29,1.8,14.21,14.21,0,0,1-3.87.53,5.88,5.88,0,0,1-4.57-1.66M544.56,22a20,20,0,0,0-6.11,3.57,16.7,16.7,0,0,0-3.91,5,15.1,15.1,0,0,0-1.71,5.53l11.25,2.37a8.31,8.31,0,0,1,9-7.62c2.67,0,4.66.61,6,1.81a5.62,5.62,0,0,1,2,4.28,3.24,3.24,0,0,1-.77,2.15,4.35,4.35,0,0,1-2.76,1.18L545.9,41.95a24.92,24.92,0,0,0-5.49,1.53A14.34,14.34,0,0,0,536,46.34a13,13,0,0,0-4.11,9.79,12.91,12.91,0,0,0,1.1,5.29,13.05,13.05,0,0,0,3.2,4.47,16.08,16.08,0,0,0,5.1,3.15A18.26,18.26,0,0,0,548,70.21a15.73,15.73,0,0,0,13.83-6.94c0,.89.06,1.88.15,3s.21,2,.34,2.61h11.64c-.12-.81-.26-1.93-.38-3.36s-.19-2.78-.19-4v-23a20.79,20.79,0,0,0-1.09-6.75A14.49,14.49,0,0,0,568.74,26a17.76,17.76,0,0,0-6.33-3.92A27.08,27.08,0,0,0,553,20.65,23.44,23.44,0,0,0,544.56,22M654.49,36.91A10,10,0,0,1,656.55,34a10.61,10.61,0,0,1,7.63-3,12.22,12.22,0,0,1,4.62.81,10,10,0,0,1,3.25,2.1,8.36,8.36,0,0,1,1.9,2.94,11.57,11.57,0,0,1,.72,3.39h-21a9.79,9.79,0,0,1,.81-3.24m.81-14.51a23,23,0,0,0-7.39,5,23.57,23.57,0,0,0-5.1,7.75,26.16,26.16,0,0,0-1.91,10.17,27,27,0,0,0,2,10.57,23.55,23.55,0,0,0,5.3,7.9,22.36,22.36,0,0,0,7.73,4.91,25.72,25.72,0,0,0,9.25,1.65A25,25,0,0,0,673,69.12a22,22,0,0,0,6.26-3.18,19.79,19.79,0,0,0,4.52-4.72,19.36,19.36,0,0,0,2.72-5.75l-10.59-3.15a11.42,11.42,0,0,1-3.68,5.14,11,11,0,0,1-7,2,12.21,12.21,0,0,1-4.49-.81,11.35,11.35,0,0,1-3.66-2.23A11.79,11.79,0,0,1,654.49,53a10,10,0,0,1-1.09-4.23H687q0-.2.1-1.38c.07-.8.09-1.64.09-2.52q0-11.33-6.1-17.79T664,20.65a22.59,22.59,0,0,0-8.69,1.74M598.5,55.18c-2.19-2.34-3.29-5.61-3.29-9.8s1.11-7.42,3.38-9.71a11.23,11.23,0,0,1,8.26-3.42,11,11,0,0,1,8.2,3.39c2.23,2.24,3.34,5.47,3.34,9.64s-1.11,7.56-3.34,9.9a11.48,11.48,0,0,1-16.55,0M618.2,0V26.74a7.37,7.37,0,0,0-1.49-2,11.26,11.26,0,0,0-2.62-1.86,18.17,18.17,0,0,0-3.86-1.43,22.14,22.14,0,0,0-5.3-.56A21.44,21.44,0,0,0,588.72,28a23.94,23.94,0,0,0-4.62,7.75,27.2,27.2,0,0,0-1.66,9.61,27.44,27.44,0,0,0,1.71,9.85A24.22,24.22,0,0,0,588.87,63a21.23,21.23,0,0,0,7.2,5.13A22.63,22.63,0,0,0,605.33,70a16.37,16.37,0,0,0,8.15-1.9,13,13,0,0,0,5-4.66c0,1.07,0,2.13.15,3.14a14.41,14.41,0,0,0,.34,2.27h12.11c-.12-.94-.21-2.19-.28-3.75s-.1-3.13-.1-4.71V0Z" style="fill: #333"/>
      <g>
        <path d="M496.48,22.49A16,16,0,0,0,490,28.55a12.76,12.76,0,0,0-5.45-5.82,17.35,17.35,0,0,0-8.48-2,17.68,17.68,0,0,0-4,.47,20,20,0,0,0-3.9,1.34,13.81,13.81,0,0,0-3.4,2.18,11.56,11.56,0,0,0-2.48,3V22.08H450.21v46.8H462.9V41.48a9.74,9.74,0,0,1,2.29-6.56,8.1,8.1,0,0,1,6.49-2.67q4.29,0,6.29,2.52a9.86,9.86,0,0,1,2,6.33V68.87h12.58V41.48a9.8,9.8,0,0,1,2.3-6.51,7.89,7.89,0,0,1,6.39-2.71q4.39,0,6.35,2.52a10,10,0,0,1,1.95,6.33V68.87h12.31V38.53a20.41,20.41,0,0,0-1.43-8,15.91,15.91,0,0,0-3.81-5.57,14.6,14.6,0,0,0-5.45-3.18,20.12,20.12,0,0,0-6.28-1,19.47,19.47,0,0,0-8.4,1.76m49.61,36.64a5.38,5.38,0,0,1-1.53-3.76,5.05,5.05,0,0,1,1.66-4.14,8.49,8.49,0,0,1,4.15-1.76L561,47.85v2.09a13.47,13.47,0,0,1-.85,5.19,9.15,9.15,0,0,1-2.3,3.33,8.05,8.05,0,0,1-3.29,1.8,14.21,14.21,0,0,1-3.87.53,5.88,5.88,0,0,1-4.57-1.66M544.56,22a20,20,0,0,0-6.11,3.57,16.7,16.7,0,0,0-3.91,5,15.1,15.1,0,0,0-1.71,5.53l11.25,2.37a8.31,8.31,0,0,1,9-7.62c2.67,0,4.66.61,6,1.81a5.62,5.62,0,0,1,2,4.28,3.24,3.24,0,0,1-.77,2.15,4.35,4.35,0,0,1-2.76,1.18L545.9,41.95a24.92,24.92,0,0,0-5.49,1.53A14.34,14.34,0,0,0,536,46.34a13,13,0,0,0-4.11,9.79,12.91,12.91,0,0,0,1.1,5.29,13.05,13.05,0,0,0,3.2,4.47,16.08,16.08,0,0,0,5.1,3.15A18.26,18.26,0,0,0,548,70.21a15.73,15.73,0,0,0,13.83-6.94c0,.89.06,1.88.15,3s.21,2,.34,2.61h11.64c-.12-.81-.26-1.93-.38-3.36s-.19-2.78-.19-4v-23a20.79,20.79,0,0,0-1.09-6.75A14.49,14.49,0,0,0,568.74,26a17.76,17.76,0,0,0-6.33-3.92A27.08,27.08,0,0,0,553,20.65,23.44,23.44,0,0,0,544.56,22M654.49,36.91A10,10,0,0,1,656.55,34a10.61,10.61,0,0,1,7.63-3,12.22,12.22,0,0,1,4.62.81,10,10,0,0,1,3.25,2.1,8.36,8.36,0,0,1,1.9,2.94,11.57,11.57,0,0,1,.72,3.39h-21a9.79,9.79,0,0,1,.81-3.24m.81-14.51a23,23,0,0,0-7.39,5,23.57,23.57,0,0,0-5.1,7.75,26.16,26.16,0,0,0-1.91,10.17,27,27,0,0,0,2,10.57,23.55,23.55,0,0,0,5.3,7.9,22.36,22.36,0,0,0,7.73,4.91,25.72,25.72,0,0,0,9.25,1.65A25,25,0,0,0,673,69.12a22,22,0,0,0,6.26-3.18,19.79,19.79,0,0,0,4.52-4.72,19.36,19.36,0,0,0,2.72-5.75l-10.59-3.15a11.42,11.42,0,0,1-3.68,5.14,11,11,0,0,1-7,2,12.21,12.21,0,0,1-4.49-.81,11.35,11.35,0,0,1-3.66-2.23A11.79,11.79,0,0,1,654.49,53a10,10,0,0,1-1.09-4.23H687q0-.2.1-1.38c.07-.8.09-1.64.09-2.52q0-11.33-6.1-17.79T664,20.65a22.59,22.59,0,0,0-8.69,1.74M598.5,55.18c-2.19-2.34-3.29-5.61-3.29-9.8s1.11-7.42,3.38-9.71a11.23,11.23,0,0,1,8.26-3.42,11,11,0,0,1,8.2,3.39c2.23,2.24,3.34,5.47,3.34,9.64s-1.11,7.56-3.34,9.9a11.48,11.48,0,0,1-16.55,0M618.2,0V26.74a7.37,7.37,0,0,0-1.49-2,11.26,11.26,0,0,0-2.62-1.86,18.17,18.17,0,0,0-3.86-1.43,22.14,22.14,0,0,0-5.3-.56A21.44,21.44,0,0,0,588.72,28a23.94,23.94,0,0,0-4.62,7.75,27.2,27.2,0,0,0-1.66,9.61,27.44,27.44,0,0,0,1.71,9.85A24.22,24.22,0,0,0,588.87,63a21.23,21.23,0,0,0,7.2,5.13A22.63,22.63,0,0,0,605.33,70a16.37,16.37,0,0,0,8.15-1.9,13,13,0,0,0,5-4.66c0,1.07,0,2.13.15,3.14a14.41,14.41,0,0,0,.34,2.27h12.11c-.12-.94-.21-2.19-.28-3.75s-.1-3.13-.1-4.71V0Z" style="fill: #333"/>
        <g style="clip-path: url(#clip-path)">
          <rect x="450.21" width="236.95" height="70.3" style="fill: #333"/>
        </g>
      </g>
      <g>
        <polyline points="27.38 20.36 27.38 37.01 18.66 37.01 18.66 20.36 0 20.36 0 69.71 18.66 69.71 18.66 51.26 27.38 51.26 27.38 69.71 46.01 69.71 46.01 20.36 27.38 20.36" style="fill: #333"/>
        <g style="clip-path: url(#clip-path-2)">
          <g>
            <rect x="0.06" width="687.1" height="70.37" style="fill: #333"/>
            <g style="clip-path: url(#clip-path-3)">
              <rect x="0.06" y="20.33" width="45.96" height="49.44" style="fill: #333"/>
            </g>
          </g>
        </g>
      </g>
      <polyline points="80.41 20.36 80.41 69.71 118.07 69.71 118.07 56.89 99.11 56.89 99.11 51.05 116.14 51.05 116.14 38.38 99.11 38.38 99.11 33.01 117.45 33.01 117.45 20.36 80.41 20.36" style="fill: #333"/>
      <g>
        <polyline points="80.41 20.36 80.41 69.71 118.07 69.71 118.07 56.89 99.11 56.89 99.11 51.05 116.14 51.05 116.14 38.38 99.11 38.38 99.11 33.01 117.45 33.01 117.45 20.36 80.41 20.36" style="fill: #333"/>
        <g style="clip-path: url(#clip-path-4)">
          <rect x="80.41" y="20.36" width="37.66" height="49.35" style="fill: #333"/>
        </g>
      </g>
      <path d="M173,30.35l4.24,19.49h-8.8L173,30.35m-11.7-10L145,69.8h18.78l1.82-7.92H180l1.72,7.92H202.1L186.5,20.36Z" style="fill: #333"/>
      <g>
        <path d="M173,30.35l4.24,19.49h-8.8L173,30.35m-11.7-10L145,69.8h18.78l1.82-7.92H180l1.72,7.92H202.1L186.5,20.36Z" style="fill: #333"/>
        <g style="clip-path: url(#clip-path-5)">
          <rect x="144.97" y="20.36" width="57.13" height="49.44" style="fill: #333"/>
        </g>
      </g>
      <path d="M247.83,40.72V31.39a20.48,20.48,0,0,1,2.12-.08c4.2,0,6,1.31,6,4.39s-2.34,5.05-6.81,5.05c-.41,0-.91,0-1.35,0M229.18,20.36V69.71h18.66V51.83c.59-.06,1.23-.06,1.7-.06,4.48,0,5.1,2.1,5.84,7.43l.48,3.67a55.49,55.49,0,0,0,1.44,6.84h18.9c-.82-3.65-1.43-6.58-1.72-8.78l-.62-5.28c-.88-7.12-2.48-10.14-9.12-11.25,6.46-1.72,9.74-5.55,9.74-11.51,0-9.87-6.38-12.53-20-12.53Z" style="fill: #333"/>
      <g>
        <path d="M247.83,40.72V31.39a20.48,20.48,0,0,1,2.12-.08c4.2,0,6,1.31,6,4.39s-2.34,5.05-6.81,5.05c-.41,0-.91,0-1.35,0M229.18,20.36V69.71h18.66V51.83c.59-.06,1.23-.06,1.7-.06,4.48,0,5.1,2.1,5.84,7.43l.48,3.67a55.49,55.49,0,0,0,1.44,6.84h18.9c-.82-3.65-1.43-6.58-1.72-8.78l-.62-5.28c-.88-7.12-2.48-10.14-9.12-11.25,6.46-1.72,9.74-5.55,9.74-11.51,0-9.87-6.38-12.53-20-12.53Z" style="fill: #333"/>
        <g style="clip-path: url(#clip-path-6)">
          <rect x="229.18" y="20.36" width="47.02" height="49.35" style="fill: #333"/>
        </g>
      </g>
      <g>
        <path d="M304.07,35.1c0,6.92,3.71,10.81,11.69,13.34,5.83,1.86,10.3,2.56,12.84,3.8a3.55,3.55,0,0,1,1.94,3.41c0,2.12-1.71,3.55-4.61,3.55-3.22,0-4.72-1.55-4.72-4.93v-.39H303.38a14.08,14.08,0,0,0-.08,1.78c0,8.68,6.54,14,18.9,14.77h6.27C341,69.55,348.21,63,348.21,53.3c0-9-5.49-12.13-17-15.19-6.26-1.71-9.69-1.56-9.69-5,0-1.87,1.58-3.3,4.12-3.3,2.76,0,4.12,1.43,4.33,4.38h16.43v-1c0-8.71-7-13.57-20.06-13.57-14.44,0-22.28,5.84-22.28,15.5" style="fill: #333"/>
        <g style="clip-path: url(#clip-path-7)">
          <g>
            <rect x="0.06" width="687.1" height="70.37" style="fill: #333"/>
            <g style="clip-path: url(#clip-path-3)">
              <rect x="303.3" y="19.49" width="45" height="50.88" style="fill: #333"/>
            </g>
          </g>
        </g>
      </g>
      <polyline points="371.8 20.36 371.8 33.51 383.77 33.51 383.77 69.71 402.87 69.71 402.87 33.51 414.77 33.51 414.77 20.36 371.8 20.36" style="fill: #333"/>
    </g>
  </g>
</svg>
