<svg xmlns="http://www.w3.org/2000/svg" viewBox="0 0 80 80"><path d="M69 20H23.2c-.5 0-1 .4-1 .9v4.8H11c-.5 0-1 .4-1 .9V54c0 3.9 3.2 7.1 7.1 7.1H69c.5 0 1-.4 1-.9V21.1c.1-.5-.3-1-.9-1.1H69zM12 53.9V27.7h10.2V54c0 2.8-2.3 5.1-5.1 5.1-2.8-.1-5.1-2.4-5.1-5.2zM68 59H22c1.4-1.3 2.2-3.2 2.2-5.1V22H68v37zM30.8 36.5h30.5c.5 0 1-.4 1-.9v-8.9c0-.5-.4-1-.9-1H30.8c-.5 0-1 .4-1 .9v8.9c0 .6.4 1 1 1zm1-8.8h28.5v6.8H31.8v-6.8zm-2 13.6c0-.5.4-1 .9-1h30.6c.6 0 1 .4 1 1s-.4 1-1 1H30.8c-.6 0-1-.4-1-1zm0 5.9c0-.5.4-1 .9-1h30.6c.6 0 1 .4 1 1s-.4 1-1 1H30.8c-.5 0-1-.5-1-1zm0 5.8c0-.5.4-1 .9-1h30.6c.6 0 1 .4 1 1s-.4 1-1 1H30.8c-.6 0-1-.4-1-1z" fill="#1d1d1d"/></svg>