<svg xmlns="http://www.w3.org/2000/svg" viewBox="0 0 67.87 67.87"><g data-name="Layer 2"><path d="M33.93 67.87a33.93 33.93 0 1133.94-33.94 34 34 0 01-33.94 33.94zm0-65.81a31.88 31.88 0 1031.88 31.87A31.91 31.91 0 0033.93 2.06zm-1.09 47.26a4.73 4.73 0 01-1.28-.18 7.68 7.68 0 01-4.4-4c-.58-1.19-1.6-4.55-2.69-8.11a81.55 81.55 0 00-2.78-8.32 7.64 7.64 0 00-2.24 1.25l-.82.65-2.47-3.24.53-.63c.24-.28 5.88-7 10.44-7.87a3.74 3.74 0 013 .55c2.09 1.45 2.68 5 3.24 8.34.19 1.12.37 2.21.6 3.14.41 1.63 1.22 4.88 1.79 5.74.41-.34 1.64-1.69 3.57-5.3.85-1.58.74-2.94.18-3.47s-1.47-.35-2.59.33L35 29.33l.37-2.2a10.47 10.47 0 016.73-8c2.79-1 5.54-.76 7.33.74 1.2 1 2.5 3 1.83 6.75-1.94 10.94-12.84 20-15.65 21.81a5 5 0 01-2.77.89zm-11.07-22.6a1.88 1.88 0 011.5.67c.57.67 1.4 3.27 3.16 9 1 3.33 2.07 6.77 2.58 7.82a5.61 5.61 0 003.11 2.93 2.73 2.73 0 002.34-.42C37.11 45 47.39 36.5 49.21 26.29c.39-2.21 0-3.87-1.12-4.81s-3.24-1.15-5.3-.39a8.65 8.65 0 00-4.86 4.5 3.31 3.31 0 013 .78c1.34 1.28 1.42 3.66.21 5.93-3.46 6.47-4.94 6.47-5.5 6.47-1.67 0-2.33-2-3.67-7.38-.24-1-.43-2.12-.63-3.3-.45-2.69-1-6-2.38-7a1.74 1.74 0 00-1.39-.22c-2.88.57-6.87 4.48-8.73 6.55l.22.3a5.58 5.58 0 012.71-1z" fill="#333" data-name="Layer 1"/></g></svg>