<svg xmlns="http://www.w3.org/2000/svg" viewBox="0 0 67.86 67.87"><g data-name="Layer 2"><g fill="#fff" data-name="Layer 1"><path d="M43 54.09H24.84a10.47 10.47 0 01-10.46-10.45V24.23a10.47 10.47 0 0110.46-10.46H43a10.47 10.47 0 0110.48 10.46v19.41A10.47 10.47 0 0143 54.09zM24.84 15.45a8.79 8.79 0 00-8.78 8.78v19.41a8.79 8.79 0 008.78 8.78H43a8.79 8.79 0 008.78-8.78V24.23A8.79 8.79 0 0043 15.45zm9.09 31.29a12.88 12.88 0 01-12.87-12.87A13.07 13.07 0 0125 24.54 12.23 12.23 0 0134 21a13.27 13.27 0 019.58 3.92 12.46 12.46 0 013.21 9A13.17 13.17 0 0143 43a12.67 12.67 0 01-9.07 3.74zm-.27-24.06a10.68 10.68 0 00-7.48 3.07 11.38 11.38 0 00-3.43 8.13 11.2 11.2 0 0011.18 11.18 11 11 0 007.87-3.28 11.5 11.5 0 003.32-7.88 10.82 10.82 0 00-2.75-7.83A11.64 11.64 0 0034 22.68zm12.59 2.47a3.64 3.64 0 113.65-3.65 3.65 3.65 0 01-3.65 3.65zm0-5.61a2 2 0 102 2 2 2 0 00-2-2z"/><path d="M33.93 42.68a8.82 8.82 0 01-8.82-8.81 9 9 0 012.71-6.42 8.33 8.33 0 015.82-2.4h.24a9.33 9.33 0 016.74 2.64 8.51 8.51 0 012.11 6.15 8.87 8.87 0 01-8.8 8.84zm-.28-16A6.66 6.66 0 0029 28.65a7.32 7.32 0 00-2.21 5.22 7.14 7.14 0 1014.27-.06 6.87 6.87 0 00-1.66-5 7.7 7.7 0 00-5.56-2.1z"/><path d="M33.93 67.87a33.93 33.93 0 1133.93-33.94 34 34 0 01-33.93 33.94zm0-65.81a31.88 31.88 0 1031.88 31.87A31.91 31.91 0 0033.93 2.06z"/></g></g></svg>