<svg xmlns="http://www.w3.org/2000/svg" viewBox="0 0 67.87 67.87"><g data-name="Layer 2"><path d="M33.93 67.87a33.93 33.93 0 1133.94-33.94 34 34 0 01-33.94 33.94zm0-65.81a31.88 31.88 0 1031.88 31.87A31.91 31.91 0 0033.93 2.06zm17.51 48.63h-9.11V38.31c0-3.77-1.85-3.77-2.55-3.77a2.88 2.88 0 00-2.67 1.94 3.91 3.91 0 00-.11 1.33v12.88h-9.15v-1c0-.19.09-19.23 0-21.17l-.05-1.07H37v1.28a8 8 0 015.33-1.78c5.64 0 9.15 4.05 9.15 10.58zm-7.08-2.06h5V37.49c0-5.41-2.58-8.52-7.09-8.52a6 6 0 00-5.49 3l-1.89 2.92v-5.42h-5v19.16h5V37.81a5.51 5.51 0 01.31-2.11 4.86 4.86 0 014.57-3.22c1.38 0 4.6.57 4.6 5.83zM26 50.69h-9.13V27.41H26zm-7.06-2.06h5V29.47h-5zm2.5-22.06a4.66 4.66 0 01-4.92-4.7 4.7 4.7 0 015-4.7 4.7 4.7 0 110 9.39zm0-7.33a2.65 2.65 0 10-.09 5.28 2.65 2.65 0 100-5.28z" fill="#fff" data-name="Layer 1"/></g></svg>