<svg xmlns="http://www.w3.org/2000/svg" viewBox="0 0 80 80"><path d="M54.5 26.9c0-.1 0-.2-.1-.3L50 18.7l4.5-7.9c.1-.1.1-.2.1-.3s0-.2-.1-.3L49.8 2s0-.1-.1-.1l-.1-.1h-.1H30.6h-.1-.1s-.1 0-.1.1c0 0 0 .1-.1.1l-4.7 8.2c-.1.2-.1.4 0 .5l4.5 8-4.5 8c-.1.2-.1.4 0 .5l4.5 8-4.5 8c-.1.2-.1.4 0 .5l4.5 8-4.5 8c-.1.2-.1.4 0 .5.1.2.2.2.4.2H54c.3 0 .5-.2.5-.5 0-.1 0-.2-.1-.3l-4.5-7.9 4.5-7.9c.1-.1.1-.2.1-.3 0-.1 0-.2-.1-.3l-4.5-7.9 4.5-7.9c.1-.3.1-.4.1-.5zm-6 25.2l-3.8 6.7-3.8-6.7h7.6zm-9.4 0l-3.8 6.7-3.8-6.7h7.6zm-4.6 7.2h-7.7l3.8-6.7 3.9 6.7zM36.2 10L40 3.3l3.8 6.7h-7.6zm9.3 0l3.8-6.7 3.8 6.7h-7.6zm0 32.8l3.8-6.7 3.8 6.7h-7.6zm7.7 1.1l-3.8 6.7-3.8-6.7h7.6zm-9.4 0L40 50.6l-3.8-6.7h7.6zm-9.3-16.5l-3.8 6.7-3.8-6.7h7.6zm-3-9.2l3.8-6.7 3.8 6.7h-7.6zm17 17.4l-3.8 6.7-3.8-6.7h7.6zm-9.4 0l-3.8 6.7-3.8-6.7h7.6zm1.8-1l3.8-6.7 3.8 6.7h-7.6zm2.9-7.2L40 34.1l-3.8-6.7h7.6zm-7.6-1l3.8-6.7 3.8 6.7h-7.6zm-4.7-7.2h7.6l-3.8 6.7-3.8-6.7zm0 15.4l3.8-6.7 3.8 6.7h-7.6zm12.3 8.2h-7.6l3.8-6.7 3.8 6.7zm4.7-23.6l-3.8 6.7-3.8-6.7h7.6zM36.2 11h7.6L40 17.7 36.2 11zm-9.4 15.4l3.8-6.7 3.8 6.7h-7.6zm0 16.4l3.8-6.7 3.8 6.7h-7.6zm12.3 8.3h-7.7l3.8-6.7 3.9 6.7zm5.6-6.7l3.8 6.7h-7.6l3.8-6.7zm8.5-17l-3.8 6.7-3.8-6.7h7.6zm-12.3-9.2l3.8-6.7 3.8 6.7h-7.6zm4.6-7.2h7.6l-3.8 6.7c.1 0-3.8-6.7-3.8-6.7zm7.7 15.4h-7.6l3.8-6.7 3.8 6.7zM40.9 2.8h7.6l-3.8 6.7-3.8-6.7zm-9.4 0h7.6l-3.8 6.7-3.8-6.7zM26.8 11h7.6l-3.8 6.7-3.8-6.7zm7.7 32.9l-3.8 6.7-3.8-6.7h7.6zm9.3 15.4h-7.6l3.8-6.7 3.8 6.7zm9.4 0h-7.6l3.8-6.7 3.8 6.7zM26.8 10l3.8-6.7 3.8 6.7h-7.6z" fill="#1d1d1d"/></svg>